<?xml version="1.0" encoding="iso-8859-1"?>
<!-- Generator: Adobe Illustrator 19.0.0, SVG Export Plug-In . SVG Version: 6.00 Build 0)  -->
<svg version="1.1" id="Layer_1" xmlns="http://www.w3.org/2000/svg" xmlns:xlink="http://www.w3.org/1999/xlink" x="0px" y="0px"
	 viewBox="0 0 512 512" style="enable-background:new 0 0 512 512;" xml:space="preserve">
<path style="fill:#F2F2F2;" d="M504.155,284.017c0-46.592-30.625-86.019-72.839-99.284c-5.527-43.316-42.443-76.826-87.261-76.826
	c-11.212,0-21.895,2.178-31.759,5.999c-30.523-42.36-80.148-70.04-136.347-70.04c-92.841,0-168.105,75.263-168.105,168.106
	c0,88.47,68.385,160.819,155.155,167.451c21.71,52.083,73.076,88.709,133.025,88.709c57.948,0,107.771-34.284,130.648-83.607
	C471.246,372.76,504.155,332.285,504.155,284.017z"/>
<g>
	<circle style="fill:#FFFFFF;" cx="147.937" cy="231.983" r="92.059"/>
	<path style="fill:#FFFFFF;" d="M256.261,113.906c9.863-3.821,20.546-5.999,31.759-5.999c7.551,0,14.849,1.025,21.84,2.814
		c-30.687-40.533-79.151-66.854-133.91-66.854c-9.429,0-18.613,0.968-27.618,2.459C192.649,53.91,231.004,78.855,256.261,113.906z"
		/>
	<path style="fill:#FFFFFF;" d="M431.316,184.734c-5.527-43.316-42.443-76.826-87.261-76.826c-9.778,0-19.117,1.736-27.897,4.694
		c31.362,10.604,54.812,38.343,59.123,72.132c42.214,13.264,72.839,52.692,72.839,99.284c0,48.269-32.909,88.743-77.482,100.509
		c-19.084,41.145-56.95,71.742-102.61,80.784c9.066,1.789,18.404,2.822,27.997,2.822c57.948,0,107.771-34.284,130.648-83.607
		c44.571-11.765,77.482-52.24,77.482-100.509C504.155,237.425,473.53,197.998,431.316,184.734z"/>
</g>
<circle style="fill:#F7931E;" cx="296.02" cy="348.058" r="72.045"/>
<path style="fill:#F9A94B;" d="M296.025,276.012c-5.51,0-10.854,0.676-16.01,1.847c32.073,7.289,56.035,35.919,56.035,70.199
	c0,34.279-23.962,62.91-56.035,70.198c5.156,1.172,10.5,1.847,16.01,1.847c39.789,0,72.045-32.256,72.045-72.045
	C368.071,308.268,335.815,276.012,296.025,276.012z"/>
<path style="fill:#F15A24;" d="M296.025,276.012c5.51,0,10.854,0.676,16.01,1.847c-32.073,7.289-56.035,35.919-56.035,70.199
	c0,34.279,23.962,62.91,56.035,70.198c-5.156,1.172-10.5,1.847-16.01,1.847c-39.789,0-72.045-32.256-72.045-72.045
	C223.98,308.268,256.236,276.012,296.025,276.012z"/>
<path d="M296.025,427.948c-44.051,0-79.89-35.838-79.89-79.89s35.838-79.89,79.89-79.89s79.89,35.838,79.89,79.89
	S340.076,427.948,296.025,427.948z M296.025,283.857c-35.4,0-64.2,28.8-64.2,64.2s28.8,64.2,64.2,64.2s64.2-28.8,64.2-64.2
	S331.425,283.857,296.025,283.857z"/>
<g>
	<path style="fill:#FFFFFF;" d="M296.474,395.927v-15.69c9.414,0,19.379-4.693,25.526-12.877l12.658,9.423
		C325.519,388.949,311.118,395.927,296.474,395.927z"/>
	<path style="fill:#FFFFFF;" d="M342.937,357.624l-15.376-3.121c0.428-2.106,0.868-4.273,0.868-6.444
		c0-17.744-14.173-32.18-31.955-32.18v-15.69c26.15,0,47.646,21.474,47.646,47.87C344.119,351.274,343.573,354.493,342.937,357.624z
		"/>
</g>
<path d="M391.926,179.434h-15.69c0-16.736-14.909-31.663-32.691-31.663v-15.69C370.74,132.082,391.926,153.284,391.926,179.434z"/>
<rect x="280.779" y="196.167" width="15.69" height="15.69"/>
<rect x="303.791" y="220.226" width="24.058" height="15.69"/>
<path d="M424.086,339.893v-15.69c21.966,0,40.204-18.201,40.204-40.167h15.69C479.981,314.369,454.421,339.893,424.086,339.893z"/>
<rect x="424.082" y="236.962" width="15.69" height="15.69"/>
<rect x="392.702" y="259.974" width="31.38" height="15.69"/>
<rect x="392.702" y="315.412" width="15.69" height="15.69"/>
<path d="M159.447,331.888c-61.714,0-111.417-49.945-111.417-111.659h15.69c0,52.3,43.427,95.969,95.727,95.969V331.888z"/>
<rect x="96.682" y="172.109" width="15.69" height="15.69"/>
<rect x="112.372" y="196.167" width="24.058" height="15.69"/>
<rect x="152.121" y="268.342" width="48.116" height="15.69"/>
<rect x="175.133" y="348.884" width="16.736" height="15.69"/>
<rect x="208.605" y="227.548" width="23.012" height="15.69"/>
<rect x="167.811" y="156.419" width="48.116" height="15.69"/>
<rect x="215.927" y="180.477" width="24.058" height="15.69"/>
<rect x="47.52" y="180.477" width="15.69" height="23.012"/>
<rect x="128.063" y="108.303" width="15.69" height="15.69"/>
<rect x="167.811" y="75.877" width="40.794" height="15.69"/>
<rect x="224.295" y="99.935" width="15.69" height="15.69"/>
<path d="M489.855,217.187c-13.01-17.442-31.164-30.925-51.512-38.351c-8.164-45.246-47.854-78.775-94.288-78.775
	c-9.796,0-19.5,1.521-28.924,4.528c-15.52-20.077-35.374-36.786-57.73-48.533c-24.944-13.108-53.11-20.035-81.45-20.035
	C78.931,36.022,0,114.953,0,211.973c0,44.617,16.743,87.15,47.146,119.765c29.142,31.261,68.231,50.707,110.519,55.084
	c24.639,54.32,78.433,89.157,138.361,89.157c29.526,0,58.144-8.501,82.765-24.584c22.929-14.978,41.34-35.768,53.427-60.279
	C479.378,377.004,512,333.484,512,284.018C512,259.721,504.342,236.61,489.855,217.187z M424.672,376.94l-3.564,0.94l-1.55,3.344
	c-10.796,23.275-27.859,42.996-49.346,57.032c-22.063,14.413-47.716,22.031-74.185,22.031c-55.171,0-104.544-32.926-125.783-83.882
	l-1.85-4.437l-4.794-0.366c-40.161-3.07-77.442-21.028-104.976-50.564c-27.687-29.7-42.933-68.434-42.933-109.066
	c0-36.133,12.026-69.508,32.278-96.343H79.95v-15.69H61.477c29.11-29.738,69.67-48.226,114.473-48.226
	c26.177,0,51.126,6.135,74.152,18.234c21.949,11.533,41.256,28.321,55.829,48.546l3.545,4.919l5.654-2.19
	c9.367-3.63,19.099-5.47,28.924-5.47c40.221,0,74.389,30.082,79.479,69.975l0.636,4.985l4.794,1.506
	c19.112,6.005,36.27,18.205,48.313,34.35c12.452,16.692,19.033,36.559,19.033,57.449C496.31,327.595,466.851,365.807,424.672,376.94
	z"/>
<rect x="71.578" y="123.993" width="25.104" height="15.69"/>
<g>
</g>
<g>
</g>
<g>
</g>
<g>
</g>
<g>
</g>
<g>
</g>
<g>
</g>
<g>
</g>
<g>
</g>
<g>
</g>
<g>
</g>
<g>
</g>
<g>
</g>
<g>
</g>
<g>
</g>
</svg>
